<svg width="216" height="127" viewBox="0 0 216 127" fill="none" xmlns="http://www.w3.org/2000/svg">
<path d="M89.4791 11.6686C82.5468 5.49781 73.5002 2.2011 64.1984 2.45595C54.8966 2.71079 46.0464 6.49786 39.4665 13.0388C32.8869 19.5798 29.0772 28.3776 28.8208 37.6246C28.5644 46.8712 31.8807 55.8644 38.0883 62.7557L89.4791 11.6686Z" fill="#915EFF"/>
<path d="M100.273 12.4129C100.273 24.2253 104.993 35.5538 113.395 43.9066C121.798 52.2592 133.193 56.9516 145.076 56.9516C156.959 56.9516 168.355 52.2592 176.757 43.9066C185.159 35.5538 189.879 24.2253 189.879 12.4129H100.273Z" fill="#915EFF"/>
<path d="M2.44147 108.317C12.0152 117.644 24.9046 122.838 38.3089 122.771C51.7129 122.703 64.549 117.38 74.0272 107.958C83.5055 98.5356 88.8605 85.7756 88.9281 72.4506C88.9958 59.1256 83.7709 46.3125 74.3889 36.7953L2.44147 108.317Z" fill="#915EFF"/>
<path d="M100.273 64.0573C100.266 69.8959 101.419 75.678 103.664 81.0731C105.908 86.4685 109.201 91.3704 113.354 95.4987C117.507 99.6273 122.438 102.901 127.866 105.132C133.293 107.364 139.109 108.509 144.982 108.503C148.313 108.502 151.634 108.144 154.887 107.435C164.816 105.246 173.697 99.753 180.06 91.8656C186.422 83.9779 189.887 74.1677 189.88 64.0573H100.273Z" fill="#915EFF"/>
<path d="M196.934 125.919C206.351 125.919 213.986 118.33 213.986 108.968C213.986 99.6053 206.351 92.0161 196.934 92.0161C187.516 92.0161 179.881 99.6053 179.881 108.968C179.881 118.33 187.516 125.919 196.934 125.919Z" fill="#915EFF"/>
</svg>
